<svg xmlns="http://www.w3.org/2000/svg" viewBox="0 0 100 16"><defs><style>.a{fill:#df6d25;}</style></defs><path class="a" d="M5.17,9.32A2.74,2.74,0,0,0,6,7.81C6,7.14,5.35,7,4.1,7H1.63L5.37,2.4H.69v-1h8L4.76,6.17c.46,0,.81,0,1,0,1.75,0,2.64.63,2.64,1.82a3.65,3.65,0,0,1-1,2.18L3.82,14.6h-3Z"/><path class="a" d="M10.79,5H13c1.71,0,2.57.64,2.57,1.84,0,.9-.63,1.45-1.78,1.51l1.81,3H14.21l-1.83-3.2c1.36-.09,2-.42,2-1.31s-.59-1.4-1.77-1.4h-.53v5.91H10.79Z"/><path class="a" d="M17.35,7.17h2.14v.36H18c-.34,0-.45.06-.45.33v1h1.62v.41H17.51v1.32c0,.3.15.32.52.32h1.51v.36H17.2c-.6,0-.69-.24-.69-.74V7.92C16.51,7.31,16.65,7.17,17.35,7.17Z"/><path class="a" d="M22.87,7.74A.91.91,0,0,0,22,7.05a.79.79,0,0,0-.79.64l-1.1,3.62h.44L20.93,10H22.6L23,11.31h1ZM21,9.68l.53-1.75c.05-.16.1-.24.18-.24s.16.07.21.23l.53,1.76Z"/><path class="a" d="M25.89,4.55v6.08c0,.3.14.32.52.32h.25v.36H25.57c-.59,0-.68-.24-.68-.74v-6Z"/><path class="a" d="M27.46,7.76a.65.65,0,0,1,.74-.71c.46,0,.68.21.84.67l.71,2.14.66-2.24a.74.74,0,0,1,.8-.57.69.69,0,0,1,.77.76v3.5H31V7.85c0-.11,0-.16-.1-.16s-.1,0-.13.14l-1,3.25c-.07.25-.17.37-.33.37a.37.37,0,0,1-.34-.29L28.07,7.88c0-.1,0-.19-.1-.19s-.08.08-.08.17v3.45h-.43Z"/><path class="a" d="M33.32,10.9a4.23,4.23,0,0,0,.93.11c.68,0,1-.2,1-.63s-.3-.56-.78-.8l-.28-.14c-.66-.33-1-.62-1-1.13,0-.75.59-1.26,1.73-1.26a6.5,6.5,0,0,1,.9.1V7.5c-.44,0-.71-.1-.83-.1-.6,0-.9.23-.9.58s.27.47.69.69l.45.25c.65.35,1,.59,1,1.17,0,.77-.62,1.26-1.82,1.26a7,7,0,0,1-1.1-.11Z"/><polygon class="a" points="40.59 5 44.82 5 44.82 5.47 41.85 5.47 41.85 7.78 44.61 7.78 44.61 8.26 41.85 8.26 41.85 10.84 44.82 10.84 44.82 11.31 40.59 11.31 40.59 5"/><path class="a" d="M46.1,11.31V7.88c0-.56.17-.83.64-.83a1.17,1.17,0,0,1,1,.69l1.17,1.93a.06.06,0,0,0,.06,0c.07,0,.08,0,.08-.12V7.17h.43V11c0,.32-.05.49-.33.49a.43.43,0,0,1-.39-.25L46.67,7.93s0-.06-.07-.06-.08,0-.08.11v3.33Z"/><polygon class="a" points="51.41 7.53 50.46 7.53 50.46 7.17 53.36 7.17 53.36 7.53 52.41 7.53 52.41 11.31 51.41 11.31 51.41 7.53"/><path class="a" d="M55.22,7.17h2.13v.36H55.82c-.33,0-.45.06-.45.33v1H57v.41H55.37v1.32c0,.3.15.32.52.32H57.4v.36H55.06c-.6,0-.68-.24-.68-.74V7.92C54.38,7.31,54.51,7.17,55.22,7.17Z"/><path class="a" d="M58.46,11.31V7.17h1.8c1.13,0,1.71.41,1.71,1.14a1,1,0,0,1-1,1l1.17,2H61L59.89,9.24c.71,0,1-.25,1-.83s-.32-.9-1-.9h-.46v3.8Z"/><polygon class="a" points="63.7 7.53 62.74 7.53 62.74 7.17 65.64 7.17 65.64 7.53 64.69 7.53 64.69 11.31 63.7 11.31 63.7 7.53"/><path class="a" d="M68.93,7.74a.9.9,0,0,0-.88-.69.79.79,0,0,0-.79.64l-1.1,3.62h.44L67,10h1.66l.41,1.27h1ZM67.1,9.68l.53-1.75c.06-.16.1-.24.18-.24s.16.07.21.23l.53,1.76Z"/><path class="a" d="M71.46,5.45a.53.53,0,1,1,0,1.06A.56.56,0,0,1,70.87,6,.56.56,0,0,1,71.46,5.45Z"/><rect class="a" x="70.95" y="7.17" width="0.99" height="4.14"/><path class="a" d="M73.35,11.31V7.88c0-.56.18-.83.65-.83a1.16,1.16,0,0,1,1,.69l1.18,1.93a.06.06,0,0,0,.06,0c.06,0,.07,0,.07-.12V7.17h.43V11c0,.32,0,.49-.32.49A.42.42,0,0,1,76,11.2L73.93,7.93s0-.06-.08-.06-.07,0-.07.11v3.33Z"/><path class="a" d="M78.16,7.76a.65.65,0,0,1,.74-.71c.46,0,.68.21.84.67l.71,2.14.66-2.24a.74.74,0,0,1,.81-.57.69.69,0,0,1,.76.76v3.5h-1V7.85c0-.11,0-.16-.1-.16s-.1,0-.13.14l-1,3.25c-.07.25-.16.37-.33.37a.37.37,0,0,1-.34-.29L78.77,7.88c0-.1,0-.19-.1-.19s-.08.08-.08.17v3.45h-.43Z"/><path class="a" d="M85,7.17H87.1v.36H85.57c-.33,0-.45.06-.45.33v1h1.62v.41H85.12v1.32c0,.3.15.32.52.32h1.51v.36H84.81c-.6,0-.68-.24-.68-.74V7.92C84.13,7.31,84.26,7.17,85,7.17Z"/><path class="a" d="M88.21,11.31V7.88c0-.56.18-.83.65-.83a1.16,1.16,0,0,1,1,.69L91,9.67a.09.09,0,0,0,.07,0c.06,0,.07,0,.07-.12V7.17h.43V11c0,.32,0,.49-.32.49a.42.42,0,0,1-.39-.25L88.79,7.93s-.05-.06-.08-.06-.07,0-.07.11v3.33Z"/><polygon class="a" points="93.53 7.53 92.58 7.53 92.58 7.17 95.48 7.17 95.48 7.53 94.53 7.53 94.53 11.31 93.53 11.31 93.53 7.53"/><path class="a" d="M96.39,10.9a4.17,4.17,0,0,0,.93.11c.68,0,1-.2,1-.63s-.3-.56-.78-.8l-.28-.14c-.66-.33-1-.62-1-1.13,0-.75.6-1.26,1.74-1.26a6.66,6.66,0,0,1,.9.1V7.5c-.44,0-.71-.1-.84-.1-.59,0-.9.23-.9.58s.28.47.69.69l.45.25c.65.35,1,.59,1,1.17,0,.77-.62,1.26-1.82,1.26a6.83,6.83,0,0,1-1.1-.11Z"/></svg>