<svg xmlns="http://www.w3.org/2000/svg" viewBox="0 0 100 35"><defs><style>.a{fill:#fff;}.b{fill:#ff8603;}</style></defs><path class="a" d="M94.85,30.84V17.17H82.09c-.3.44-.55.82-.7,1l-.51.73h.26V20.2h-2.9V18.93h.05a3.72,3.72,0,0,1,0-1.71v0H32.9a13.58,13.58,0,0,1,.37,3.15,13.29,13.29,0,0,1-5.15,10.51h1.61V32.1h-2.9v-.38a13.19,13.19,0,0,1-5.12,1.78H94.85V32.1H92V30.84ZM34.07,32.1H31.18V30.84h2.89Zm.73-13.17h2.89V20.2H34.8ZM38.42,32.1h-2.9V30.84h2.9Zm.72-13.17H42V20.2h-2.9ZM42.76,32.1H39.87V30.84h2.89Zm.73-13.17h2.89V20.2H43.49ZM47.11,32.1h-2.9V30.84h2.9Zm.72-13.17h2.9V20.2h-2.9ZM51.45,32.1H48.56V30.84h2.89Zm.73-13.17h2.89V20.2H52.18ZM55.8,32.1H52.9V30.84h2.9Zm.72-13.17h2.9V20.2h-2.9ZM60.14,32.1h-2.9V30.84h2.9Zm.73-13.17h2.89V20.2H60.87ZM64.49,32.1h-2.9V30.84h2.9Zm.72-13.17h2.9V20.2h-2.9ZM68.83,32.1h-2.9V30.84h2.9Zm.72-13.17h2.9V20.2h-2.9ZM73.18,32.1h-2.9V30.84h2.9Zm.72-13.17h2.9V20.2H73.9ZM77.52,32.1h-2.9V30.84h2.9Zm4.34,0H79V30.84h2.89Zm.73-13.17h2.9V20.2h-2.9ZM86.21,32.1h-2.9V30.84h2.9Zm.72-13.17h2.9V20.2h-2.9ZM90.55,32.1H87.66V30.84h2.89Zm.73-11.9V18.93h2.89V20.2Zm-11.11-3a15.8,15.8,0,0,0-.61,1.73s.4-.33.68-.58.78-.89,1-1.15Z"/><path class="b" d="M18.43,6.11A13.28,13.28,0,1,0,31.71,19.39,13.28,13.28,0,0,0,18.43,6.11Zm5.27,7.51c-.42,1.51-2.08,3.47-4.82,5.65l.05-.05c-.44.34-1,.76-1.2.93s-.39.32-.39.32h.75a6.72,6.72,0,0,1,1.94.19,5.6,5.6,0,0,1,2.3,1.1,2.55,2.55,0,0,1,.78.84,1.78,1.78,0,0,1,.29.93A1.92,1.92,0,0,1,22.79,25a10.73,10.73,0,0,1-1.42,1.15,16.25,16.25,0,0,1-3.77,1.69,7.19,7.19,0,0,1-3,.54c-.56-.12-1.17-.54-1.17-.81,0-.1.1-.12.34-.1a1.22,1.22,0,0,0,.47-.07,43.79,43.79,0,0,0,5.4-2.25,4,4,0,0,0,2.06-2,1.18,1.18,0,0,0,.07-.49c0-.27,0-.32-.07-.44-.22-.34-.93-.59-2-.66a21.93,21.93,0,0,0-4.43.47,3.2,3.2,0,0,1-1.08.12,1.79,1.79,0,0,1-1.1-.88c-.1-.2,0-.37.56-.86a23.25,23.25,0,0,1,2-1.47c1.44-1,2.2-1.59,3-2.22a12.69,12.69,0,0,0,3.23-3.53,2.18,2.18,0,0,0,.29-1.37c0-.17,0-.17-.12-.22a3.65,3.65,0,0,0-.88,0A11.43,11.43,0,0,0,17,13.13c-1.15.66-1.74,1.27-1.84,1.93,0,.17,0,.22.13.24s.31.2.31.3a.49.49,0,0,1-.22.27c-.27.17-1,0-1.54-.44a1.19,1.19,0,0,1-.44-1,1.72,1.72,0,0,1,.32-.83,6.28,6.28,0,0,1,2.32-2,11.46,11.46,0,0,1,2.89-1.07,4.22,4.22,0,0,1,3.92.71,2.33,2.33,0,0,1,.9,1.37A5.13,5.13,0,0,1,23.7,13.62Z"/><path d="M41.9,22.94h2.51a.22.22,0,0,1,.15.06.17.17,0,0,1,.06.14.2.2,0,0,1-.06.15.27.27,0,0,1-.15.05H42.06l.07-.12v1.92l-.08-.09H44.1a.21.21,0,0,1,.15.07.2.2,0,0,1,.06.14.17.17,0,0,1-.06.14.2.2,0,0,1-.15.06h-2l.06-.07v2l0,0h2.31a.22.22,0,0,1,.15.06.2.2,0,0,1,.06.14.17.17,0,0,1-.06.14.22.22,0,0,1-.15.06H41.9a.2.2,0,0,1-.14-.06.2.2,0,0,1-.06-.15V23.14a.21.21,0,0,1,.2-.2Zm5.22,1.21a1.28,1.28,0,0,1,.72.18,1,1,0,0,1,.39.49,1.92,1.92,0,0,1,.12.69v2a.2.2,0,0,1-.06.15.2.2,0,0,1-.14.06.18.18,0,0,1-.15-.06.2.2,0,0,1-.06-.15v-2a1.31,1.31,0,0,0-.09-.5.68.68,0,0,0-.29-.36.85.85,0,0,0-.53-.14,1.07,1.07,0,0,0-.55.14,1.17,1.17,0,0,0-.43.36.81.81,0,0,0-.16.5v2a.2.2,0,0,1-.06.15.22.22,0,0,1-.15.06.2.2,0,0,1-.15-.06.25.25,0,0,1-.05-.15V24.45a.2.2,0,0,1,.06-.14.17.17,0,0,1,.14-.06.2.2,0,0,1,.15.06.2.2,0,0,1,.06.14V25l-.16.24a1,1,0,0,1,.14-.42,1.49,1.49,0,0,1,.77-.61A1.36,1.36,0,0,1,47.12,24.15Zm2.08.09h1.59a.18.18,0,0,1,.14.06.19.19,0,0,1,0,.14.17.17,0,0,1,0,.13.17.17,0,0,1-.14.05H49.2a.19.19,0,0,1-.14-.05.2.2,0,0,1-.06-.14.16.16,0,0,1,.06-.13A.2.2,0,0,1,49.2,24.24Zm.7-1a.2.2,0,0,1,.15.06.2.2,0,0,1,.06.14v3.43a.69.69,0,0,0,0,.29.27.27,0,0,0,.13.13.51.51,0,0,0,.17,0l.1,0,.1,0a.14.14,0,0,1,.1.05.17.17,0,0,1,.05.12.18.18,0,0,1-.11.16.46.46,0,0,1-.26.07h-.19a.66.66,0,0,1-.25-.08.49.49,0,0,1-.22-.23,1.1,1.1,0,0,1-.08-.47V23.48a.2.2,0,0,1,.06-.14A.18.18,0,0,1,49.9,23.28Zm3.39,4.51a1.86,1.86,0,0,1-.93-.23,1.59,1.59,0,0,1-.63-.63A1.9,1.9,0,0,1,51.5,26a2,2,0,0,1,.23-1,1.65,1.65,0,0,1,.6-.63,1.43,1.43,0,0,1,.77-.22,1.7,1.7,0,0,1,.59.1,1.58,1.58,0,0,1,.5.32,1.47,1.47,0,0,1,.36.51,2.06,2.06,0,0,1,.14.69.16.16,0,0,1-.07.14.18.18,0,0,1-.14.06H51.74l-.08-.37h2.69l-.09.08v-.13a1,1,0,0,0-.2-.55,1.18,1.18,0,0,0-.43-.34,1.19,1.19,0,0,0-1,0,1.21,1.21,0,0,0-.39.26,1.38,1.38,0,0,0-.28.44,1.79,1.79,0,0,0-.11.64,1.57,1.57,0,0,0,.16.73,1.21,1.21,0,0,0,.48.52,1.34,1.34,0,0,0,.74.19,1.44,1.44,0,0,0,.43-.06,1.29,1.29,0,0,0,.33-.18,1.36,1.36,0,0,0,.24-.24.24.24,0,0,1,.15-.06.17.17,0,0,1,.17.18.2.2,0,0,1-.06.14,2,2,0,0,1-.54.43A1.44,1.44,0,0,1,53.29,27.79Zm2.48-.07a.2.2,0,0,1-.15-.06.25.25,0,0,1,0-.15V24.45a.2.2,0,0,1,.06-.14.17.17,0,0,1,.14-.06.2.2,0,0,1,.15.06.2.2,0,0,1,.06.14v1l-.11,0A2.11,2.11,0,0,1,56,25a1.94,1.94,0,0,1,.27-.43,1.42,1.42,0,0,1,.41-.32,1.15,1.15,0,0,1,.53-.12.52.52,0,0,1,.24.05.17.17,0,0,1,.12.16.2.2,0,0,1-.06.16.18.18,0,0,1-.13.06.24.24,0,0,1-.13,0,.5.5,0,0,0-.19,0,.76.76,0,0,0-.38.11,1.43,1.43,0,0,0-.6.73,1.36,1.36,0,0,0-.09.48v1.68a.2.2,0,0,1-.06.15A.22.22,0,0,1,55.77,27.72ZM58,24.24h1.59a.18.18,0,0,1,.14.06.19.19,0,0,1,0,.14.17.17,0,0,1,0,.13.17.17,0,0,1-.14.05H58a.19.19,0,0,1-.14-.05.2.2,0,0,1-.06-.14.16.16,0,0,1,.06-.13A.2.2,0,0,1,58,24.24Zm.71-1a.21.21,0,0,1,.2.2v3.43a.69.69,0,0,0,0,.29.32.32,0,0,0,.13.13.51.51,0,0,0,.17,0l.1,0,.1,0a.14.14,0,0,1,.1.05.17.17,0,0,1,0,.12.18.18,0,0,1-.11.16.44.44,0,0,1-.26.07H59a.66.66,0,0,1-.25-.08.43.43,0,0,1-.21-.23,1,1,0,0,1-.09-.47V23.48a.2.2,0,0,1,.06-.14A.2.2,0,0,1,58.68,23.28Zm4.7.95a.2.2,0,0,1,.14.06.2.2,0,0,1,.06.15v3.07a.2.2,0,0,1-.06.15.2.2,0,0,1-.14.06.21.21,0,0,1-.21-.21V26.7l.12-.05a.89.89,0,0,1-.11.39,1.55,1.55,0,0,1-.72.64,1.41,1.41,0,0,1-.54.11,1.47,1.47,0,0,1-.83-.24,1.67,1.67,0,0,1-.57-.66,2.05,2.05,0,0,1-.21-.93,2,2,0,0,1,.21-.94,1.61,1.61,0,0,1,.57-.64,1.47,1.47,0,0,1,.82-.23,1.42,1.42,0,0,1,.55.1,1.48,1.48,0,0,1,.45.28,1.21,1.21,0,0,1,.3.41,1.1,1.1,0,0,1,.1.47l-.14-.1v-.87a.21.21,0,0,1,.21-.21ZM62,27.4a1.18,1.18,0,0,0,.65-.18A1.41,1.41,0,0,0,63,26.7,1.78,1.78,0,0,0,63.2,26a1.74,1.74,0,0,0-.16-.73,1.46,1.46,0,0,0-.44-.51,1.11,1.11,0,0,0-.65-.19,1.13,1.13,0,0,0-.63.18,1.31,1.31,0,0,0-.45.51,1.58,1.58,0,0,0-.16.74,1.64,1.64,0,0,0,.16.74,1.41,1.41,0,0,0,.44.52A1.17,1.17,0,0,0,62,27.4Zm2.89-3.69a.28.28,0,0,1-.21-.07.21.21,0,0,1-.07-.18v-.07a.21.21,0,0,1,.08-.19.33.33,0,0,1,.21-.06.3.3,0,0,1,.2.06.24.24,0,0,1,.07.19v.07a.21.21,0,0,1-.07.18A.27.27,0,0,1,64.84,23.71Zm.21,3.8a.21.21,0,0,1-.21.21.18.18,0,0,1-.14-.06.2.2,0,0,1-.06-.15V24.37a.2.2,0,0,1,.06-.14.18.18,0,0,1,.14-.06.2.2,0,0,1,.15.06.2.2,0,0,1,.06.14Zm2.71-3.36a1.28,1.28,0,0,1,.72.18,1,1,0,0,1,.39.49,1.92,1.92,0,0,1,.12.69v2a.2.2,0,0,1-.06.15.2.2,0,0,1-.14.06.18.18,0,0,1-.15-.06.2.2,0,0,1-.06-.15v-2a1.31,1.31,0,0,0-.09-.5.73.73,0,0,0-.29-.36.85.85,0,0,0-.53-.14,1.07,1.07,0,0,0-.55.14,1.17,1.17,0,0,0-.43.36.82.82,0,0,0-.17.5v2a.2.2,0,0,1-.06.15.2.2,0,0,1-.14.06.21.21,0,0,1-.21-.21V24.45a.2.2,0,0,1,.06-.14.22.22,0,0,1,.3,0,.19.19,0,0,1,0,.14V25l-.15.24a.87.87,0,0,1,.14-.42,1.53,1.53,0,0,1,.32-.36,1.48,1.48,0,0,1,.44-.25A1.41,1.41,0,0,1,67.76,24.15Zm3.87.05a1.17,1.17,0,0,1,.73.22,1.12,1.12,0,0,1,.41.66l-.1,0,0-.12a1.08,1.08,0,0,1,.3-.39,1.66,1.66,0,0,1,.48-.29A1.41,1.41,0,0,1,74,24.2a1.15,1.15,0,0,1,.69.19,1,1,0,0,1,.38.49,1.94,1.94,0,0,1,.12.7v1.93a.2.2,0,0,1-.06.15.18.18,0,0,1-.14.06.21.21,0,0,1-.21-.21V25.6a1.36,1.36,0,0,0-.09-.51.75.75,0,0,0-.28-.37.88.88,0,0,0-.51-.14,1.14,1.14,0,0,0-.54.14,1,1,0,0,0-.41.37.84.84,0,0,0-.16.51v1.91a.21.21,0,0,1-.36.15.25.25,0,0,1,0-.15V25.58a1.31,1.31,0,0,0-.09-.5.69.69,0,0,0-.26-.36.82.82,0,0,0-.5-.14,1.1,1.1,0,0,0-.53.14,1,1,0,0,0-.4.36.81.81,0,0,0-.16.5v1.93a.2.2,0,0,1-.06.15.2.2,0,0,1-.14.06.18.18,0,0,1-.15-.06.2.2,0,0,1-.06-.15V24.45a.2.2,0,0,1,.06-.14.22.22,0,0,1,.3,0,.24.24,0,0,1,0,.14v.64l-.18.25a1.15,1.15,0,0,1,.13-.41,1.74,1.74,0,0,1,.3-.37,1.49,1.49,0,0,1,.42-.26A1.19,1.19,0,0,1,71.63,24.2Zm6.24,3.59a1.89,1.89,0,0,1-.93-.23,1.59,1.59,0,0,1-.63-.63,2.18,2.18,0,0,1,0-1.93,1.71,1.71,0,0,1,.59-.63,1.46,1.46,0,0,1,.78-.22,1.65,1.65,0,0,1,.58.1,1.52,1.52,0,0,1,.51.32,1.59,1.59,0,0,1,.35.51,1.84,1.84,0,0,1,.15.69.23.23,0,0,1-.07.14.2.2,0,0,1-.14.06H76.33l-.08-.37h2.69l-.09.08v-.13a1,1,0,0,0-.21-.55,1.1,1.1,0,0,0-.43-.34,1.2,1.2,0,0,0-.52-.12,1.25,1.25,0,0,0-.42.08,1,1,0,0,0-.39.26,1.4,1.4,0,0,0-.29.44,1.79,1.79,0,0,0-.11.64,1.57,1.57,0,0,0,.17.73,1.25,1.25,0,0,0,.47.52,1.38,1.38,0,0,0,.74.19,1.51,1.51,0,0,0,.44-.06,1.74,1.74,0,0,0,.33-.18,1.36,1.36,0,0,0,.24-.24.24.24,0,0,1,.15-.06.21.21,0,0,1,.12.05.21.21,0,0,1,0,.13.17.17,0,0,1-.07.14,1.78,1.78,0,0,1-.53.43A1.48,1.48,0,0,1,77.87,27.79Zm3.93-3.64a1.28,1.28,0,0,1,.72.18,1,1,0,0,1,.39.49,1.92,1.92,0,0,1,.12.69v2a.21.21,0,0,1-.36.15.25.25,0,0,1,0-.15v-2a1.31,1.31,0,0,0-.09-.5.79.79,0,0,0-.29-.36.85.85,0,0,0-.53-.14,1.11,1.11,0,0,0-.56.14,1.22,1.22,0,0,0-.42.36.82.82,0,0,0-.17.5v2a.2.2,0,0,1-.06.15.2.2,0,0,1-.14.06.18.18,0,0,1-.15-.06.2.2,0,0,1-.06-.15V24.45a.2.2,0,0,1,.06-.14.22.22,0,0,1,.3,0,.24.24,0,0,1,0,.14V25l-.15.24a.87.87,0,0,1,.14-.42,1.53,1.53,0,0,1,.32-.36,1.48,1.48,0,0,1,.44-.25A1.41,1.41,0,0,1,81.8,24.15Zm2.08.09h1.59a.16.16,0,0,1,.13.06.2.2,0,0,1,.06.14.18.18,0,0,1-.06.13.15.15,0,0,1-.13.05H83.88a.16.16,0,0,1-.14-.05.2.2,0,0,1-.06-.14.16.16,0,0,1,.06-.13A.17.17,0,0,1,83.88,24.24Zm.7-1a.2.2,0,0,1,.15.06.19.19,0,0,1,0,.14v3.43a.55.55,0,0,0,.06.29.24.24,0,0,0,.13.13.45.45,0,0,0,.16,0l.1,0,.1,0a.15.15,0,0,1,.15.17.17.17,0,0,1-.11.16.44.44,0,0,1-.26.07h-.18a.61.61,0,0,1-.25-.08.49.49,0,0,1-.22-.23,1,1,0,0,1-.08-.47V23.48a.19.19,0,0,1,.05-.14A.2.2,0,0,1,84.58,23.28Z"/><path class="b" d="M49.39,20.47c.18-.12.6-.12.6,0s-.25.28-.47.38a3.75,3.75,0,0,1-1.1.27,15.12,15.12,0,0,1-1.9.05,8.69,8.69,0,0,1-3.73-1.45,15.28,15.28,0,0,1-3.55-2.92,19.65,19.65,0,0,0-1.6-1.53.46.46,0,0,0-.23-.1l-.07,0,0,.2a18.66,18.66,0,0,0-.2,3A8.18,8.18,0,0,1,37,20a1.08,1.08,0,0,0,0,.25.33.33,0,0,1-.05.15,1.53,1.53,0,0,1-.23.17c-.35.38-.42.4-.82.4a1.36,1.36,0,0,1-.75-.22,3.07,3.07,0,0,1-.55-.83,4.46,4.46,0,0,1-.1-1.6,30.42,30.42,0,0,1,.2-3.37c0-.2.12-1.1.22-2a37.88,37.88,0,0,1,.6-4.52l.43-2.28c.3-1.5.45-2,.65-2.15s.92,0,1.27.35.3.5.25,1.58-.07,1.7-.32,4c0,.1.05,0,.15-.35a16.64,16.64,0,0,1,1.67-3.78c.25-.4.7-1,1-1.4A7.86,7.86,0,0,1,44.19,1.6a2.35,2.35,0,0,1,1.55.07,2.52,2.52,0,0,1,1.7,2.7A6.64,6.64,0,0,1,47,6.62,15.74,15.74,0,0,1,43.46,12a12.54,12.54,0,0,1-1.87,1.5,9.31,9.31,0,0,1-2.2.95l-.23.08.48.45c.45.45,1.22,1.17,1.72,1.72.38.4,1.18,1.2,1.25,1.25s.3.28.58.5a11,11,0,0,0,2.53,1.75,5.58,5.58,0,0,0,2.47.58,2.12,2.12,0,0,0,1.3-.28Zm-11-7.15c.48-.27,1.35-.82,1.8-1.12a16.13,16.13,0,0,0,3.95-4,9.24,9.24,0,0,0,1.56-3.7c0-.13,0-.48,0-.78a5.16,5.16,0,0,0-.05-.8,1.85,1.85,0,0,0-.28-.65c-.12-.12-.5,0-1,.2-1.68.78-3.48,2.95-5,5.95a23.72,23.72,0,0,0-1.68,4.7c-.07.25-.15.48-.15.48s.25,0,.8-.35Z"/><path class="b" d="M56.34,13.5a.37.37,0,0,1,.62.32.46.46,0,0,1-.1.2c-.55.6-3,4.18-4.7,4.18a.9.9,0,0,1-.65-.28,3,3,0,0,1-.85-1.22,4.45,4.45,0,0,1-.27-1.48,4.05,4.05,0,0,1,1.12-3,3.4,3.4,0,0,1,1.15-.88,1.44,1.44,0,0,1,1.23.08c.5.25.7.6.6,1a3.46,3.46,0,0,1-.38.83,2.8,2.8,0,0,1-1.87,1.25h-.18l-.05.17c-.3,1-.35,2.73.25,2.73,1.43,0,3.8-3.7,4-3.88Zm-3.78-.15c-.1.22-.25.5-.25.52s.25-.15.45-.37a4.06,4.06,0,0,0,.83-1.2.7.7,0,0,1,0-.13,1.64,1.64,0,0,0-.42.33,4.36,4.36,0,0,0-.58.85Z"/><path class="b" d="M67.37,13.07a.38.38,0,0,1,.27.4,1.93,1.93,0,0,1-.1.43c-.05.15-.07.27-.12.4-.1.3-.18.6-.3.87a8.78,8.78,0,0,1-.78,1.68,5.55,5.55,0,0,1-.53.77,3.91,3.91,0,0,1-.77.68,4.14,4.14,0,0,1-1,.42,2.13,2.13,0,0,1-.55.05,1.88,1.88,0,0,1-.62-.07,2.11,2.11,0,0,1-.58-.33,1.43,1.43,0,0,1-.35-.45,4.56,4.56,0,0,1-.35-1c0-.33-.07-.65-.1-.95a7.21,7.21,0,0,1,0-.93c0-.22,0-.45.05-.67l-.15.15V14.5a8.17,8.17,0,0,0-.95,1.35,2.57,2.57,0,0,1-1.17,1,1.66,1.66,0,0,1-.93-.05,1.81,1.81,0,0,1-1.27-1.55A6,6,0,0,1,57,13.65a7.47,7.47,0,0,1,.75-2.75,4.29,4.29,0,0,1,1.75-2.25,1.58,1.58,0,0,1,1-.23,3.1,3.1,0,0,1,2.27,1.05,1.39,1.39,0,0,0,.33.28,1.13,1.13,0,0,1,.4.27c.12.15.12.2,0,.8a7,7,0,0,1-.2.85v.1a2.34,2.34,0,0,0-.1.4c-.07.3-.15.63-.2.95,0,.08-.05.2-.07.3-.1.58-.18,1.13-.23,1.68,0,.27,0,.52,0,.8a4.18,4.18,0,0,0,.07.8,1.77,1.77,0,0,0,.2.65,1.74,1.74,0,0,0,.13.2c.05.05.1.1.15.1a.82.82,0,0,0,.22,0,1.75,1.75,0,0,0,1-.25,4,4,0,0,0,1.07-1.07,8.36,8.36,0,0,0,.83-1.45,6.94,6.94,0,0,0,.3-.8c0-.13.1-.28.15-.4a2.13,2.13,0,0,0,.1-.4.34.34,0,0,1,.4-.25ZM61.94,10.9c.12-.3.12-.3.1-.38s-.18-.22-.3-.4-.3-.37-.35-.45-.13-.12-.23-.07a3.35,3.35,0,0,0-1,1.07,9.16,9.16,0,0,0-.6,1.35,12.45,12.45,0,0,0-.6,3.2l0,.28.25-.3.4-.53a32.57,32.57,0,0,0,2.3-3.8Z"/><path class="b" d="M74,3.77a1.53,1.53,0,0,1,.28,1.38,10.51,10.51,0,0,1-.73,2.57,18.16,18.16,0,0,1-1.2,2.35c-1,1.73-2.12,2.88-2.75,2.88h-.1l-.05.27a21.21,21.21,0,0,0-.37,3.4,1.78,1.78,0,0,0,.1.78c0,.05,0,.05.1,0,.32-.07.7-.4,1.3-1,.32-.35,2-2.43,2.3-2.9a.33.33,0,0,1,.6.17.28.28,0,0,1-.08.2,23.93,23.93,0,0,1-3.27,3.9,1.16,1.16,0,0,1-1.33,0,1.73,1.73,0,0,1-.8-1,3.85,3.85,0,0,1-.17-1.1l0-.4.1-1,0-.4a26.2,26.2,0,0,1,.93-3.75,16.9,16.9,0,0,1,1.42-3.4,20.79,20.79,0,0,1,1.45-2.25,2.51,2.51,0,0,1,1.3-1.07.4.4,0,0,1,.3,0,1.12,1.12,0,0,1,.63.4ZM73.56,5.2a3.65,3.65,0,0,0,.08-.93l0-.07-.15.12a8,8,0,0,0-1,1.2,16.56,16.56,0,0,0-1.65,3.25,21.9,21.9,0,0,0-1.07,3.33l-.1.37.17-.07a1.52,1.52,0,0,0,.35-.25,8.4,8.4,0,0,0,1.63-2.08,16.92,16.92,0,0,0,1.12-2.4,12.18,12.18,0,0,0,.75-2.47Z"/><path class="b" d="M78.29,18.93a1.76,1.76,0,0,0,.57.89.85.85,0,0,0,.6.28.59.59,0,0,0,.4-.1,3.34,3.34,0,0,0,1-1.07Zm4.27-8.06c-.1-.27-.37-.55-.52-.55a5.15,5.15,0,0,0-1.33.95,27.51,27.51,0,0,0-2,2.25,2.22,2.22,0,0,0-.25.3,3.26,3.26,0,0,1,.1-.45c.38-1.35.38-1.6.1-1.9-.15-.12-.3-.2-.4-.15a4.13,4.13,0,0,0-1,1,23.88,23.88,0,0,0-1.8,2.68c-.3.52-.57,1-.6,1a15.88,15.88,0,0,1,.5-1.9c.38-1.28.45-1.63.35-1.88a1.66,1.66,0,0,0-.52-.57c-.25-.13-.4-.1-.53.15,0,.1-.17.42-.3.75a4.67,4.67,0,0,1-.25.65c0,.05-.52,2.17-.52,2.37A2.72,2.72,0,0,0,73.71,17a1.37,1.37,0,0,0,.13.2,1,1,0,0,0,.55.35.31.31,0,0,0,.2-.05,1.12,1.12,0,0,0,.24-.3c.11-.17.25-.41.38-.65a21.23,21.23,0,0,1,2.33-3.77l.22-.23-.12.23a7,7,0,0,0-.6,1.6c-.18.72-.1,1.2.22,1.5s.45.25.58.12a4.58,4.58,0,0,0,.62-1,13.41,13.41,0,0,1,2.3-2.9L81,12l-.17.3a22.23,22.23,0,0,0-1.45,2.57,8.49,8.49,0,0,0-1,2.35h1.82l0-.05c.27-.67.92-2.15,1.4-3.12a16.42,16.42,0,0,0,.77-1.75C82.64,11.47,82.69,11.15,82.56,10.87Z"/><path class="b" d="M84.21,13.82a.41.41,0,0,1-.07.23c-.27.45-1.3,2-2,3.12h-.86l.08-.1s1.9-2.85,2.3-3.5a.31.31,0,0,1,.58.13Z"/><path class="b" d="M82.09,17.17c-.3.44-.55.82-.7,1l-.51.73H78.29a3.72,3.72,0,0,1,0-1.71v0h1.82a15.8,15.8,0,0,0-.61,1.73s.4-.33.68-.58.78-.89,1-1.15Z"/><path class="b" d="M90.19,13a.29.29,0,0,1,.45.25c0,.07,0,.12-.13.17-.27.2-.52.43-.72.6-.48.43-.9.8-1.38,1.3a7.62,7.62,0,0,0-.9,1.1,1.64,1.64,0,0,0,.23.35,8.08,8.08,0,0,1,1.07,2.45,3.81,3.81,0,0,1-.42,2.93,3.22,3.22,0,0,1-1.55,1.3,2.8,2.8,0,0,1-1.08,0,1.51,1.51,0,0,1-1.12-1.18,5.8,5.8,0,0,1,0-1.32,9.56,9.56,0,0,1,1.5-3.65c.12-.23.12-.25.07-.33s-.27-.37-.52-.75a8.43,8.43,0,0,1-.65-1L84.86,15l-.27-1.07,0-.23a5.2,5.2,0,0,1,.3-1.72,3.73,3.73,0,0,1,1.4-1.9l.18-.1h.37a1.62,1.62,0,0,1,.55.05,1.41,1.41,0,0,1,.75.55c0,.1,0,.12,0,.17a.41.41,0,0,1-.33.2c-.12,0-.3.2-.5.6a6,6,0,0,0-.67,3,3.23,3.23,0,0,0,.42,1.13l.08.17.42-.47A11.88,11.88,0,0,1,88.94,14a13.21,13.21,0,0,1,1.27-1Zm-3.58,9.05a3.71,3.71,0,0,0,.65-2.35,4.49,4.49,0,0,0-.2-1.15,3.4,3.4,0,0,0-.37-.83,10.56,10.56,0,0,0-.5.93,8.76,8.76,0,0,0-.58,1.7,3.61,3.61,0,0,0,.1,2.25l.08.12.15-.1a2.22,2.22,0,0,0,.62-.57Z"/></svg>